# xmcd CD database file
# Copyright (C) 1997 Ti Kan
#
# Track frame offsets:
#  150
#  15340
#  40522
#  51957
#  67625
#  86962
#  106825
#  125242
#  143797
#  162282
#  183085
#  201027
#  214684
#
# Disc length: 3115 seconds
#
# Revision: 1
# Processed by: cddbd v1.4b41PL1 Copyright (c) Steve Scherf et al.
# Submitted via: CDWizzard Release:4.24
#
DISCID=a80c290d
DTITLE=Six String Drag - Six String Drag
DYEAR=1900
DGENRE=
TTITLE0=She's a Hurricane
TTITLE1=Crocked Arrow
TTITLE2=Off With Your Head
TTITLE3=When You'd Fall
TTITLE4=The Hand That Knocks Me Down
TTITLE5=Lack
TTITLE6=South of Meridian
TTITLE7=Surely
TTITLE8=Worried Song
TTITLE9=Don't Write
TTITLE10=St. Cecila
TTITLE11=I'm a Lonesome Fugitive
TTITLE12=Nothin' You Ain't Seen
EXTD=
EXTT0=
EXTT1=
EXTT2=
EXTT3=
EXTT4=
EXTT5=
EXTT6=
EXTT7=
EXTT8=
EXTT9=
EXTT10=
EXTT11=
EXTT12=
PLAYORDER=
